<svg width="309" height="346" viewBox="0 0 309 346" fill="none" xmlns="http://www.w3.org/2000/svg">
<path d="M289.947 55.949C318.858 100.333 309.626 166.866 289.347 221.165C269.152 275.391 237.997 317.345 197.176 335.364C156.444 353.38 106.13 347.432 67.642 325.626C29.0655 303.813 2.31093 266.164 0.155169 230.299C-2.08913 194.546 20.35 160.661 45.5493 117.137C70.7487 73.6143 98.8813 20.4377 146.435 4.92532C194.07 -10.5871 261.037 11.6608 289.947 55.949Z" fill="#F2F2F2"/>
<path d="M205.515 295.229L178.074 249.055" stroke="#ED7562" stroke-width="1.4054" stroke-linecap="round" stroke-linejoin="round"/>
<path d="M217.415 295.229L189.974 249.055" stroke="#ED7562" stroke-width="1.4054" stroke-linecap="round" stroke-linejoin="round"/>
<path d="M129.818 295.229L157.255 249.055" stroke="#ED7562" stroke-width="1.4054" stroke-linecap="round" stroke-linejoin="round"/>
<path d="M192.901 151.758H233.471L206.224 250.504H137.103V246.986H188.366L192.901 151.758Z" fill="#ED7562"/>
<path d="M132.592 291.665L124.902 292.861L125.971 299.734L133.661 298.538L132.592 291.665Z" fill="#DE8E68"/>
<path d="M87.3129 287.317L80.7856 283.079L76.9976 288.912L83.5249 293.151L87.3129 287.317Z" fill="#DE8E68"/>
<path d="M112.91 216.564C107.23 216.564 78.8809 282.565 78.8809 284.976C78.8809 287.387 85.0337 290.124 85.9416 290.124C87.3563 288.81 114.493 249.583 117.318 246.847C120.143 244.11 112.91 216.564 112.91 216.564Z" fill="#56CAD8"/>
<path d="M158.019 168.097C156.153 168.684 147.04 176.492 145.448 185.871C143.826 185.677 134.096 185.272 130.042 185.107C128.716 183.042 125.925 181.61 122.686 181.61C118.172 181.61 114.51 184.385 114.51 187.805C114.51 187.882 114.51 187.953 114.51 188.029H130.832C130.832 187.953 130.832 187.882 130.832 187.805C130.827 186.941 130.594 186.093 130.156 185.348L144.337 187.607L161.182 189.36L162.918 174.647L158.019 168.097Z" fill="#D37C59"/>
<path d="M172.006 157.645C172.006 156.458 169.05 155.111 166.879 155.111C161.085 155.111 151.284 165.669 151.284 166.995C151.284 168.321 158.34 174.224 163.763 174.579C169.185 174.934 172.006 157.645 172.006 157.645Z" fill="#FCC486"/>
<path d="M186.398 149.182C219.147 149.182 211.664 223.164 207.512 226.289C203.361 229.414 166.972 229.701 164.603 226.576C162.234 223.451 147.534 149.182 186.398 149.182Z" fill="#FED385"/>
<path d="M192.153 135.031H179.062V152.569C179.062 155.352 192.153 155.373 192.153 152.569V135.031Z" fill="#D37C59"/>
<path d="M195.88 128.388C197.553 117.897 193.189 108.48 186.132 107.355C179.075 106.229 171.998 113.822 170.325 124.313C168.652 134.804 173.017 144.221 180.074 145.346C187.131 146.471 194.208 138.879 195.88 128.388Z" fill="#DE8E68"/>
<path d="M213.804 98C220.139 98 226.473 101.378 234.497 101.378C240.831 101.378 246.744 98.8446 254.345 98.8446C267.858 98.8446 272.081 107.713 272.081 113.203C272.081 127.138 260.679 132.628 252.233 132.628C238.72 132.628 237.031 123.338 220.983 123.338C205.359 123.338 207.47 110.669 204.092 110.669C202.402 110.669 201.347 110.88 200.713 111.513C200.08 112.147 196.913 109.824 196.913 108.98C196.913 108.135 201.136 98 213.804 98Z" fill="black"/>
<path d="M185.511 102.645C170.574 102.645 167.449 114.009 167.449 117.29C167.449 120.572 169.523 123.004 170.583 123.084C171.241 119.161 174.383 113.747 174.531 113.625C175.376 114.47 178.505 117.181 181.71 117.426C184.38 117.563 186.973 118.37 189.248 119.774C189.436 120.865 189.848 121.906 190.456 122.831C191.32 124.223 192.625 125.286 194.164 125.85C194.539 126.794 194.754 127.793 194.801 128.807C194.801 133.317 194.379 135.141 193.957 136.408C200.84 136.408 204.092 129.317 204.092 120.361C204.092 105.614 191.043 102.645 185.511 102.645Z" fill="black"/>
<path d="M194.78 132.544C196.795 132.544 198.429 130.91 198.429 128.895C198.429 126.88 196.795 125.247 194.78 125.247C192.765 125.247 191.131 126.88 191.131 128.895C191.131 130.91 192.765 132.544 194.78 132.544Z" fill="#DE8E68"/>
<path d="M182.554 176.492C181.081 176.847 175.173 180.508 171.63 186.826C168.146 186.176 153.973 182.632 141.393 182.632C140.211 182.632 137.141 181.661 135.903 181.661C128.526 181.661 126.984 185.648 126.984 186.826C126.984 188.004 127.238 188.038 127.466 188.038C152.804 188.038 159.176 198.726 173.429 198.726C178.04 198.726 187.546 195.386 193.276 186.83C191.266 180.014 182.554 176.492 182.554 176.492Z" fill="#DE8E68"/>
<path d="M207.462 162.092C215.375 169.774 195.363 191.036 192.153 190.724C188.944 190.411 177.373 178.228 177.263 174.524C177.153 170.821 199.814 154.664 207.462 162.092Z" fill="#FED892"/>
<path d="M223.728 188.984H45V194.752H223.728V188.984Z" fill="#FD8369"/>
<path d="M207.441 229.968C207.441 228.152 207.758 226.049 206.626 225.58C179.759 214.503 140.427 213.067 134.367 213.067C128.307 213.067 110.587 213.684 110.587 218.756C110.587 237.075 120.794 293.472 122.868 295.58C123.851 296.572 132.433 295.909 133.501 294.836C133.429 290.191 136.128 243.532 133.666 237.881C156.246 246.158 181.888 250.077 188.644 250.077C208.226 250.056 207.441 232.121 207.441 229.968Z" fill="#74D5DE"/>
<path d="M84.1679 292.282L77.3521 287.738L59.0075 283.895L57.2634 286.775L78.8808 300.141L84.1679 292.282Z" fill="black"/>
<path d="M134.299 296.724L126.212 297.995L110.11 307.59L110.777 310.897L135.735 306.091L134.299 296.724Z" fill="black"/>
<path d="M214.125 280.783V193.139" stroke="#FD8369" stroke-width="1.4054" stroke-linecap="round" stroke-linejoin="round"/>
<path d="M65.625 280.783V193.139" stroke="#FD8369" stroke-width="1.4054" stroke-linecap="round" stroke-linejoin="round"/>
<path d="M201.575 298.346V193.139" stroke="#FD8369" stroke-width="1.4054" stroke-linecap="round" stroke-linejoin="round"/>
<path d="M52.365 298.346V193.139" stroke="#FD8369" stroke-width="1.4054" stroke-linecap="round" stroke-linejoin="round"/>
<path d="M142.027 295.229L169.463 249.055" stroke="#ED7562" stroke-width="1.4054" stroke-linecap="round" stroke-linejoin="round"/>
<path d="M140.262 187.924H110.587V188.984H140.262V187.924Z" fill="#74D5DE"/>
<path d="M142.458 118.84H77.6689V165.888H142.458V118.84Z" fill="#74D5DE"/>
<path d="M100.963 157.041L92.0271 188.984H107.69L116.364 157.041H100.963Z" fill="#56CAD8"/>
</svg>
