<svg width="197" height="188" viewBox="0 0 197 188" fill="none" xmlns="http://www.w3.org/2000/svg">
<g clip-path="url(#clip0)">
<path d="M119.237 10.5478L16.6025 32.6226L47.0295 174.772L149.664 152.698L119.237 10.5478Z" fill="#E0E0E0"/>
<g opacity="0.5">
<path opacity="0.5" d="M118.019 13.3242L18.8525 34.6529L48.251 171.998L147.417 150.669L118.019 13.3242Z" fill="url(#paint0_linear)"/>
</g>
<path d="M116.971 14.6067L20.3296 35.3924L49.0785 169.703L145.72 148.917L116.971 14.6067Z" fill="#FAFAFA"/>
<path d="M91.5022 13.994L43.5596 24.3055L46.0514 35.9469L93.9941 25.6354L91.5022 13.994Z" fill="url(#paint1_linear)"/>
<path d="M65.0958 7.77946C61.3944 8.57643 59.0525 12.3012 59.8667 16.0983C60.681 19.8953 64.3392 22.3319 68.0334 21.535C71.7276 20.738 74.0768 17.0132 73.2625 13.2162C72.4482 9.41914 68.7972 6.98249 65.0958 7.77946ZM67.4185 18.6384C66.6362 18.8254 65.8161 18.7747 65.0627 18.4928C64.3092 18.2108 63.6566 17.7104 63.188 17.0553C62.7193 16.4001 62.4559 15.6199 62.4312 14.8142C62.4066 14.0084 62.6218 13.2135 63.0495 12.5308C63.4772 11.8481 64.098 11.3085 64.8328 10.9808C65.5676 10.6531 66.3831 10.5521 67.1753 10.6907C67.9676 10.8293 68.7007 11.2012 69.2813 11.759C69.8619 12.3169 70.2637 13.0354 70.4354 13.8229C70.554 14.3377 70.57 14.871 70.4825 15.392C70.3949 15.9131 70.2056 16.4116 69.9252 16.8591C69.6449 17.3066 69.2791 17.6941 68.849 17.9995C68.4188 18.3048 67.9327 18.522 67.4185 18.6384Z" fill="url(#paint2_linear)"/>
<path d="M90.8908 13.6033L43.958 23.6976L46.34 34.8258L93.2728 24.7314L90.8908 13.6033Z" fill="#6C63FF"/>
<path d="M65.0958 7.77946C63.7985 8.05857 62.6129 8.71702 61.6889 9.67154C60.765 10.6261 60.1441 11.8338 59.9049 13.142C59.6656 14.4502 59.8188 15.8002 60.3449 17.0212C60.871 18.2422 61.7465 19.2794 62.8607 20.0016C63.9748 20.7238 65.2776 21.0986 66.6043 21.0787C67.931 21.0587 69.2219 20.6449 70.314 19.8895C71.406 19.1341 72.2501 18.071 72.7394 16.8347C73.2287 15.5985 73.3414 14.2445 73.0631 12.9441C72.8783 12.0806 72.5256 11.262 72.0252 10.5351C71.5248 9.80815 70.8864 9.18717 70.1466 8.70758C69.4067 8.22799 68.5799 7.89918 67.7133 7.73994C66.8466 7.58069 65.9572 7.59412 65.0958 7.77946ZM67.3152 18.1569C66.5664 18.3179 65.7868 18.2528 65.0749 17.9697C64.3631 17.6866 63.7509 17.1982 63.316 16.5664C62.881 15.9345 62.6428 15.1876 62.6313 14.42C62.6199 13.6524 62.8358 12.8986 63.2517 12.254C63.6676 11.6094 64.2649 11.1029 64.968 10.7986C65.6711 10.4943 66.4484 10.4058 67.2017 10.5444C67.955 10.683 68.6503 11.0423 69.1998 11.577C69.7493 12.1118 70.1283 12.7978 70.2888 13.5484C70.504 14.5548 70.3117 15.6057 69.754 16.4699C69.1964 17.3341 68.3191 17.941 67.3152 18.1569Z" fill="#6C63FF"/>
<path d="M166.915 28.1491H61.9443V173.534H166.915V28.1491Z" fill="#E0E0E0"/>
<g opacity="0.5">
<path opacity="0.5" d="M165.143 30.6074H63.7197V171.078H165.143V30.6074Z" fill="url(#paint3_linear)"/>
</g>
<path d="M163.85 31.6427H65.0093V169.01H163.85V31.6427Z" fill="white"/>
<path d="M139.076 25.6859H90.0425V37.5923H139.076V25.6859Z" fill="url(#paint4_linear)"/>
<path d="M114.559 14.0637C110.774 14.0637 107.704 17.2131 107.704 21.0992C107.704 24.9853 110.774 28.1346 114.559 28.1346C118.345 28.1346 121.415 24.9853 121.415 21.0992C121.415 17.2131 118.345 14.0637 114.559 14.0637ZM114.559 25.1586C113.755 25.1778 112.962 24.9561 112.284 24.5218C111.605 24.0875 111.071 23.4604 110.75 22.7206C110.429 21.9807 110.335 21.1616 110.48 20.3679C110.625 19.5742 111.003 18.8419 111.565 18.2645C112.128 17.6871 112.849 17.2908 113.637 17.1262C114.425 16.9616 115.244 17.0362 115.99 17.3404C116.736 17.6446 117.374 18.1647 117.823 18.8342C118.273 19.5037 118.513 20.2922 118.513 21.0992C118.521 22.1597 118.109 23.1802 117.368 23.9373C116.627 24.6945 115.617 25.1267 114.559 25.1394V25.1586Z" fill="url(#paint5_linear)"/>
<path d="M138.56 25.1755H90.5591V36.557H138.56V25.1755Z" fill="#6C63FF"/>
<path d="M114.56 14.0637C113.233 14.0637 111.936 14.4581 110.833 15.197C109.729 15.936 108.87 16.9863 108.362 18.2151C107.854 19.4439 107.721 20.796 107.98 22.1005C108.239 23.405 108.878 24.6033 109.816 25.5438C110.754 26.4843 111.95 27.1247 113.251 27.3842C114.552 27.6437 115.901 27.5105 117.127 27.0015C118.353 26.4925 119.401 25.6306 120.138 24.5247C120.875 23.4188 121.268 22.1186 121.268 20.7886C121.268 19.005 120.562 17.2945 119.304 16.0334C118.045 14.7722 116.339 14.0637 114.56 14.0637ZM114.56 24.6699C113.795 24.6689 113.047 24.4407 112.411 24.0141C111.775 23.5874 111.279 22.9815 110.987 22.2728C110.694 21.564 110.618 20.7843 110.767 20.0319C110.916 19.2796 111.284 18.5885 111.825 18.0458C112.366 17.5031 113.055 17.1331 113.805 16.9827C114.555 16.8322 115.333 16.908 116.041 17.2004C116.748 17.4928 117.353 17.9888 117.78 18.6257C118.206 19.2626 118.435 20.0119 118.437 20.7789C118.436 21.2888 118.336 21.7937 118.141 22.2646C117.946 22.7356 117.66 23.1634 117.3 23.5236C116.94 23.8838 116.513 24.1694 116.042 24.364C115.572 24.5586 115.068 24.6585 114.56 24.6578V24.6699Z" fill="#6C63FF"/>
<g opacity="0.5">
<path opacity="0.5" d="M4.57111 177.464H3.66797V182.599H4.57111V177.464Z" fill="#47E6B1"/>
<path opacity="0.5" d="M6.68262 180.485V179.58H1.55923V180.485H6.68262Z" fill="#47E6B1"/>
</g>
<g opacity="0.5">
<path opacity="0.5" d="M109.35 0H108.447V5.13574H109.35V0Z" fill="#47E6B1"/>
<path opacity="0.5" d="M111.461 3.01932V2.11401L106.338 2.11401V3.01932L111.461 3.01932Z" fill="#47E6B1"/>
</g>
<path opacity="0.5" d="M185.211 186.014C184.962 185.905 184.761 185.708 184.647 185.461C184.534 185.214 184.514 184.933 184.594 184.672C184.606 184.633 184.614 184.591 184.618 184.55C184.625 184.43 184.594 184.312 184.528 184.212C184.463 184.112 184.368 184.036 184.256 183.994C184.144 183.953 184.022 183.949 183.907 183.983C183.793 184.016 183.693 184.086 183.621 184.181C183.596 184.215 183.575 184.251 183.558 184.29C183.45 184.539 183.254 184.74 183.007 184.854C182.76 184.969 182.48 184.988 182.22 184.908C182.181 184.896 182.14 184.888 182.098 184.884C181.979 184.877 181.861 184.909 181.761 184.974C181.661 185.039 181.585 185.135 181.544 185.247C181.503 185.359 181.499 185.482 181.532 185.596C181.566 185.711 181.635 185.812 181.73 185.884C181.764 185.909 181.8 185.93 181.839 185.946C182.088 186.055 182.288 186.252 182.402 186.499C182.516 186.746 182.535 187.027 182.456 187.287C182.443 187.327 182.435 187.368 182.432 187.41C182.425 187.529 182.456 187.648 182.521 187.748C182.586 187.848 182.682 187.924 182.794 187.965C182.906 188.007 183.028 188.011 183.142 187.977C183.256 187.944 183.357 187.874 183.429 187.778C183.454 187.745 183.475 187.709 183.491 187.67C183.6 187.42 183.796 187.219 184.043 187.105C184.289 186.991 184.569 186.972 184.829 187.051C184.869 187.064 184.91 187.072 184.952 187.075C185.071 187.083 185.189 187.051 185.288 186.986C185.388 186.92 185.464 186.825 185.506 186.713C185.547 186.601 185.551 186.478 185.517 186.363C185.484 186.249 185.414 186.148 185.319 186.076C185.286 186.051 185.249 186.03 185.211 186.014Z" fill="#4D8AF0"/>
<path opacity="0.5" d="M32.8276 136.64C32.5785 136.531 32.378 136.335 32.2642 136.087C32.1503 135.84 32.1312 135.56 32.2103 135.299C32.2231 135.259 32.2312 135.218 32.2344 135.176C32.2415 135.057 32.2102 134.939 32.145 134.839C32.0798 134.739 31.9843 134.662 31.8724 134.621C31.7606 134.58 31.6385 134.575 31.5242 134.609C31.4098 134.643 31.3093 134.712 31.2375 134.808C31.2126 134.841 31.1916 134.878 31.1751 134.916C31.0666 135.166 30.8704 135.367 30.6237 135.481C30.377 135.595 30.0971 135.614 29.8372 135.535C29.7974 135.522 29.7563 135.514 29.7147 135.511C29.5957 135.504 29.4776 135.535 29.3779 135.6C29.2781 135.666 29.2019 135.762 29.1607 135.874C29.1195 135.986 29.1154 136.108 29.149 136.223C29.1825 136.337 29.252 136.438 29.3472 136.51C29.3807 136.535 29.4169 136.556 29.4553 136.573C29.7044 136.681 29.9049 136.878 30.0188 137.125C30.1326 137.373 30.1517 137.653 30.0726 137.914C30.0598 137.954 30.0517 137.995 30.0486 138.037C30.0414 138.156 30.0727 138.274 30.1379 138.374C30.2031 138.474 30.2987 138.551 30.4105 138.592C30.5223 138.633 30.6444 138.637 30.7588 138.604C30.8731 138.57 30.9736 138.5 31.0454 138.405C31.0704 138.372 31.0913 138.335 31.1078 138.297C31.2163 138.047 31.4125 137.846 31.6592 137.732C31.9059 137.618 32.1858 137.599 32.4457 137.678C32.4855 137.691 32.5266 137.699 32.5682 137.702C32.6872 137.709 32.8053 137.678 32.9051 137.612C33.0048 137.547 33.081 137.451 33.1222 137.339C33.1634 137.227 33.1676 137.105 33.134 136.99C33.1004 136.875 33.0309 136.775 32.9357 136.703C32.9023 136.678 32.866 136.657 32.8276 136.64Z" fill="#FDD835"/>
<path opacity="0.5" d="M159.75 16.4161C159.501 16.3074 159.3 16.1107 159.187 15.8634C159.073 15.6161 159.054 15.3355 159.133 15.075C159.145 15.0351 159.154 14.9939 159.157 14.9522C159.164 14.8329 159.133 14.7145 159.067 14.6145C159.002 14.5145 158.907 14.4382 158.795 14.3969C158.683 14.3555 158.561 14.3514 158.447 14.3851C158.332 14.4187 158.232 14.4884 158.16 14.5838C158.135 14.6173 158.114 14.6537 158.097 14.6921C157.989 14.9418 157.793 15.1429 157.546 15.257C157.299 15.3711 157.019 15.3903 156.76 15.3109C156.72 15.2981 156.679 15.29 156.637 15.2868C156.518 15.2797 156.4 15.3111 156.3 15.3764C156.2 15.4417 156.124 15.5375 156.083 15.6496C156.042 15.7617 156.038 15.8841 156.071 15.9988C156.105 16.1134 156.174 16.2141 156.27 16.2861C156.303 16.3111 156.339 16.3321 156.378 16.3487C156.627 16.4574 156.827 16.6541 156.941 16.9014C157.055 17.1487 157.074 17.4293 156.995 17.6898C156.982 17.7296 156.974 17.7708 156.971 17.8126C156.964 17.9318 156.995 18.0502 157.06 18.1502C157.125 18.2502 157.221 18.3266 157.333 18.3679C157.445 18.4092 157.567 18.4133 157.681 18.3797C157.795 18.346 157.896 18.2763 157.968 18.181C157.993 18.1474 158.014 18.1111 158.03 18.0726C158.139 17.8229 158.335 17.6219 158.582 17.5078C158.828 17.3937 159.108 17.3745 159.368 17.4538C159.408 17.4666 159.449 17.4747 159.491 17.4779C159.61 17.4851 159.728 17.4537 159.827 17.3883C159.927 17.323 160.003 17.2272 160.045 17.1151C160.086 17.003 160.09 16.8806 160.056 16.766C160.023 16.6514 159.953 16.5506 159.858 16.4787C159.825 16.4536 159.788 16.4326 159.75 16.4161Z" fill="#FDD835"/>
<path opacity="0.5" d="M195.194 77.5297C196.193 77.5297 197.003 76.718 197.003 75.7167C197.003 74.7154 196.193 73.9037 195.194 73.9037C194.195 73.9037 193.385 74.7154 193.385 75.7167C193.385 76.718 194.195 77.5297 195.194 77.5297Z" fill="#F55F44"/>
<path opacity="0.5" d="M55.4205 181.588C56.4194 181.588 57.2292 180.776 57.2292 179.775C57.2292 178.774 56.4194 177.962 55.4205 177.962C54.4216 177.962 53.6118 178.774 53.6118 179.775C53.6118 180.776 54.4216 181.588 55.4205 181.588Z" fill="#F55F44"/>
<path opacity="0.5" d="M176.619 116.718C177.618 116.718 178.428 115.907 178.428 114.905C178.428 113.904 177.618 113.092 176.619 113.092C175.62 113.092 174.811 113.904 174.811 114.905C174.811 115.907 175.62 116.718 176.619 116.718Z" fill="#F55F44"/>
<path opacity="0.5" d="M20.9308 25.0118C21.9297 25.0118 22.7394 24.2 22.7394 23.1987C22.7394 22.1974 21.9297 21.3857 20.9308 21.3857C19.9318 21.3857 19.1221 22.1974 19.1221 23.1987C19.1221 24.2 19.9318 25.0118 20.9308 25.0118Z" fill="#4D8AF0"/>
<path opacity="0.5" d="M1.80868 74.4695C2.80759 74.4695 3.61737 73.6578 3.61737 72.6565C3.61737 71.6551 2.80759 70.8434 1.80868 70.8434C0.809775 70.8434 0 71.6551 0 72.6565C0 73.6578 0.809775 74.4695 1.80868 74.4695Z" fill="#47E6B1"/>
</g>
<defs>
<linearGradient id="paint0_linear" x1="97.8329" y1="161.334" x2="68.2989" y2="24.018" gradientUnits="userSpaceOnUse">
<stop stop-color="#808080" stop-opacity="0.25"/>
<stop offset="0.54" stop-color="#808080" stop-opacity="0.12"/>
<stop offset="1" stop-color="#808080" stop-opacity="0.1"/>
</linearGradient>
<linearGradient id="paint1_linear" x1="26375.2" y1="-3442.83" x2="26251.4" y2="-4018.37" gradientUnits="userSpaceOnUse">
<stop stop-color="#808080" stop-opacity="0.25"/>
<stop offset="0.54" stop-color="#808080" stop-opacity="0.12"/>
<stop offset="1" stop-color="#808080" stop-opacity="0.1"/>
</linearGradient>
<linearGradient id="paint2_linear" x1="7701.61" y1="392.697" x2="7528.92" y2="-410.237" gradientUnits="userSpaceOnUse">
<stop stop-color="#808080" stop-opacity="0.25"/>
<stop offset="0.54" stop-color="#808080" stop-opacity="0.12"/>
<stop offset="1" stop-color="#808080" stop-opacity="0.1"/>
</linearGradient>
<linearGradient id="paint3_linear" x1="48381.7" y1="99839.4" x2="48381.7" y2="17887.3" gradientUnits="userSpaceOnUse">
<stop stop-color="#808080" stop-opacity="0.25"/>
<stop offset="0.54" stop-color="#808080" stop-opacity="0.12"/>
<stop offset="1" stop-color="#808080" stop-opacity="0.1"/>
</linearGradient>
<linearGradient id="paint4_linear" x1="23476.2" y1="1884.63" x2="23476.2" y2="1295.86" gradientUnits="userSpaceOnUse">
<stop stop-color="#808080" stop-opacity="0.25"/>
<stop offset="0.54" stop-color="#808080" stop-opacity="0.12"/>
<stop offset="1" stop-color="#808080" stop-opacity="0.1"/>
</linearGradient>
<linearGradient id="paint5_linear" x1="9250.67" y1="2496.03" x2="9250.67" y2="1673.73" gradientUnits="userSpaceOnUse">
<stop stop-color="#808080" stop-opacity="0.25"/>
<stop offset="0.54" stop-color="#808080" stop-opacity="0.12"/>
<stop offset="1" stop-color="#808080" stop-opacity="0.1"/>
</linearGradient>
<clipPath id="clip0">
<rect width="197" height="188" fill="white"/>
</clipPath>
</defs>
</svg>
