<svg width="1091" height="746" viewBox="0 0 1091 746" fill="none" xmlns="http://www.w3.org/2000/svg">
<g filter="url(#filter0_d)">
<g clip-path="url(#clip0)">
<path d="M166.576 599.552C158.79 629.203 131.506 647.733 131.506 647.733C131.506 647.733 116.846 618.189 124.632 588.537C132.419 558.886 159.703 540.356 159.703 540.356C159.703 540.356 174.363 569.9 166.576 599.552Z" fill="#3F3D56"/>
<path d="M154.766 593.279C132.958 614.825 130.518 647.716 130.518 647.716C130.518 647.716 163.436 645.675 185.245 624.129C207.053 602.583 209.493 569.692 209.493 569.692C209.493 569.692 176.575 571.733 154.766 593.279Z" fill="#FF6363"/>
<path d="M182.114 639.051H96.8086C87.4516 639.051 79.8663 646.637 79.8663 655.994V672.828C79.8663 682.185 87.4516 689.771 96.8086 689.771H182.114C191.471 689.771 199.057 682.185 199.057 672.828V655.994C199.057 646.637 191.471 639.051 182.114 639.051Z" fill="#FF6363"/>
<g opacity="0.7">
<path opacity="0.7" d="M1002.3 606.652V588.376H910.921V672.902C910.921 675.242 911.382 677.559 912.277 679.721C913.173 681.883 914.485 683.847 916.14 685.502C917.795 687.157 919.759 688.469 921.921 689.365C924.083 690.26 926.4 690.721 928.74 690.721H984.481C989.207 690.721 993.74 688.844 997.081 685.502C1000.42 682.16 1002.3 677.628 1002.3 672.902V654.169C1008.59 654.157 1014.62 651.649 1019.07 647.194C1023.52 642.74 1026.01 636.704 1026.01 630.411C1026.01 624.117 1023.52 618.081 1019.07 613.627C1014.62 609.173 1008.59 606.664 1002.3 606.652ZM1002.3 645.031V615.79C1006.18 615.79 1009.9 617.33 1012.64 620.072C1015.38 622.814 1016.92 626.533 1016.92 630.411C1016.92 634.288 1015.38 638.007 1012.64 640.749C1009.9 643.491 1006.18 645.031 1002.3 645.031Z" fill="url(#paint0_linear)"/>
</g>
<path d="M999.36 609.513C995.07 609.513 990.876 610.785 987.308 613.168C983.741 615.552 980.961 618.94 979.319 622.904C977.677 626.868 977.247 631.229 978.084 635.437C978.921 639.645 980.987 643.511 984.021 646.544C987.055 649.578 990.92 651.644 995.128 652.481C999.336 653.318 1003.7 652.889 1007.66 651.247C1011.63 649.605 1015.01 646.824 1017.4 643.257C1019.78 639.69 1021.05 635.496 1021.05 631.205C1021.05 625.452 1018.77 619.934 1014.7 615.866C1010.63 611.798 1005.11 609.513 999.36 609.513ZM999.36 644.555C996.72 644.555 994.139 643.772 991.944 642.305C989.748 640.838 988.037 638.753 987.027 636.314C986.017 633.875 985.752 631.19 986.267 628.601C986.782 626.011 988.054 623.633 989.921 621.766C991.788 619.899 994.166 618.627 996.756 618.112C999.345 617.597 1002.03 617.862 1004.47 618.872C1006.91 619.882 1008.99 621.593 1010.46 623.789C1011.93 625.984 1012.71 628.565 1012.71 631.205C1012.71 634.746 1011.3 638.141 1008.8 640.645C1006.3 643.148 1002.9 644.555 999.36 644.555Z" fill="#FF6363"/>
<path opacity="0.1" d="M999.36 609.513C995.07 609.513 990.876 610.785 987.308 613.168C983.741 615.552 980.961 618.94 979.319 622.904C977.677 626.868 977.247 631.229 978.084 635.437C978.921 639.645 980.987 643.511 984.021 646.544C987.055 649.578 990.92 651.644 995.128 652.481C999.336 653.318 1003.7 652.889 1007.66 651.247C1011.63 649.605 1015.01 646.824 1017.4 643.257C1019.78 639.69 1021.05 635.496 1021.05 631.205C1021.05 625.452 1018.77 619.934 1014.7 615.866C1010.63 611.798 1005.11 609.513 999.36 609.513ZM999.36 644.555C996.72 644.555 994.139 643.772 991.944 642.305C989.748 640.838 988.037 638.753 987.027 636.314C986.017 633.875 985.752 631.19 986.267 628.601C986.782 626.011 988.054 623.633 989.921 621.766C991.788 619.899 994.166 618.627 996.756 618.112C999.345 617.597 1002.03 617.862 1004.47 618.872C1006.91 619.882 1008.99 621.593 1010.46 623.789C1011.93 625.984 1012.71 628.565 1012.71 631.205C1012.71 634.746 1011.3 638.141 1008.8 640.645C1006.3 643.148 1002.9 644.555 999.36 644.555Z" fill="black"/>
<path d="M915.927 592.826H999.36V675.402C999.36 678.285 998.215 681.049 996.177 683.088C994.138 685.126 991.374 686.271 988.491 686.271H926.796C923.914 686.271 921.149 685.126 919.111 683.088C917.072 681.049 915.927 678.285 915.927 675.402V592.826Z" fill="#FF6363"/>
<path d="M1086.97 686.271H4V722.982H1086.97V686.271Z" fill="#E0E0E0"/>
<g opacity="0.7">
<path opacity="0.7" d="M716.326 440.642C704.719 398.512 638.916 367.747 589.404 360.925C589.411 360.615 589.428 360.306 589.428 359.994V323.93C589.481 323.91 589.535 323.894 589.587 323.875V322.508C607.159 315.973 623.015 305.529 635.957 291.965C648.899 278.401 658.587 262.072 664.291 244.213C667.351 238.681 670.014 232.938 672.262 227.028C677.547 225.103 681.539 216.388 681.539 205.915C681.559 202.333 681.056 198.767 680.047 195.329C680.696 189.996 681.027 184.628 681.038 179.255C681.059 160.472 677.13 141.894 669.506 124.728C661.882 107.561 650.733 92.1901 636.784 79.6112C637.198 77.4535 637.339 75.2521 637.203 73.0593C636.082 55.7496 617.594 43.9898 600.266 43.2032C604.843 38.0107 607.852 31.6256 608.944 24.7902C610.036 17.9549 609.165 10.9501 606.432 4.59025C595.383 20.6872 572.7 22.3983 553.176 22.5249C561.601 19.2624 565.392 7.58973 560.492 3.05176e-05C540.087 27.3505 500.309 32.4151 476.039 56.4021C470.752 61.6487 466.321 67.6926 462.907 74.3132C447.134 86.8784 434.4 102.84 425.653 121.01C416.905 139.18 412.37 159.089 412.385 179.255C412.396 184.579 412.72 189.898 413.357 195.185C412.317 198.666 411.798 202.282 411.819 205.915C411.819 216.436 415.848 225.179 421.17 227.049C423.426 232.979 426.102 238.741 429.177 244.291C434.86 262.047 444.485 278.287 457.331 291.798C470.177 305.309 485.911 315.74 503.357 322.311V359.994C503.357 360.284 503.374 360.57 503.379 360.859C453.68 367.563 387.352 398.57 375.848 441.04C365.913 477.715 355.309 517.993 350.033 541.64C395.258 573.419 490.156 592.078 549.629 592.078C606.134 592.078 698.491 575.237 742.386 546.3C737.631 520.317 726.692 478.271 716.326 440.642Z" fill="url(#paint1_linear)"/>
</g>
<path d="M549.508 581.617C604.017 581.617 693.11 565.371 735.453 537.457C730.867 512.392 720.314 471.831 710.314 435.533C697.578 389.304 617.197 357.256 569.247 357.256H523.04C474.94 357.256 394.443 389.49 381.868 435.916C372.285 471.295 362.055 510.15 356.965 532.962C400.592 563.617 492.137 581.617 549.508 581.617Z" fill="#FF6363"/>
<path d="M546.693 312.962C618.259 312.962 676.274 254.947 676.274 183.382C676.274 111.817 618.259 53.8016 546.693 53.8016C475.128 53.8016 417.113 111.817 417.113 183.382C417.113 254.947 475.128 312.962 546.693 312.962Z" fill="#72351C"/>
<path opacity="0.1" d="M504.872 291.311H587.901V357.734C587.901 368.744 583.527 379.304 575.741 387.089C567.956 394.875 557.396 399.248 546.386 399.248H546.386C535.376 399.248 524.816 394.875 517.031 387.089C509.245 379.304 504.872 368.744 504.872 357.734V291.311H504.872Z" fill="black"/>
<path d="M516.781 288.236H575.991C579.15 288.236 582.179 289.49 584.412 291.724C586.646 293.957 587.901 296.986 587.901 300.145V354.659C587.901 365.669 583.527 376.228 575.741 384.014C567.956 391.799 557.396 396.173 546.386 396.173H546.386C535.376 396.173 524.816 391.799 517.031 384.014C509.245 376.228 504.872 365.669 504.872 354.659V300.145C504.872 296.986 506.126 293.957 508.36 291.724C510.593 289.49 513.622 288.236 516.781 288.236Z" fill="#FDA57D"/>
<path opacity="0.1" d="M505.025 322.662C531.785 332.66 561.24 332.741 588.054 322.891V312.692H505.025V322.662Z" fill="black"/>
<path d="M546.694 328.221C612.42 328.221 665.702 274.939 665.702 209.213C665.702 143.486 612.42 90.2047 546.694 90.2047C480.967 90.2047 427.685 143.486 427.685 209.213C427.685 274.939 480.967 328.221 546.694 328.221Z" fill="#FDA57D"/>
<path opacity="0.1" d="M461.924 100.962C461.924 100.962 512.079 202.769 653.56 143.631L620.623 91.9791L562.234 71.0189L461.924 100.962Z" fill="black"/>
<path d="M461.924 99.4649C461.924 99.4649 512.079 201.272 653.56 142.134L620.623 90.4819L562.233 69.5217L461.924 99.4649Z" fill="#72351C"/>
<path d="M461.478 92.5869C464.859 82.1176 470.703 72.6124 478.519 64.87C501.931 41.7305 540.303 36.845 559.987 10.4609C564.714 17.7825 561.057 29.0427 552.93 32.1899C571.764 32.0677 593.646 30.4172 604.304 14.889C606.94 21.0241 607.78 27.7814 606.727 34.3752C605.674 40.969 602.771 47.1285 598.356 52.1376C615.071 52.8963 632.907 64.2405 633.987 80.9385C634.707 92.0628 627.732 102.595 618.59 108.975C609.449 115.355 598.389 118.283 587.503 120.684C555.725 127.69 440.743 157.056 461.478 92.5869Z" fill="#72351C"/>
<path d="M665.698 210.255H662.543L601.159 264.901C542.022 237.203 498.604 264.901 498.604 264.901L434.226 212.5L427.735 213.316C428.615 244.55 441.744 274.186 464.288 295.823C486.831 317.459 516.98 329.362 548.224 328.96C579.468 328.558 609.301 315.884 631.28 293.674C653.259 271.464 665.622 241.501 665.698 210.255ZM546.513 285.861C523.361 285.861 504.593 281.169 504.593 275.381C504.593 269.593 523.361 264.901 546.513 264.901C569.665 264.901 588.434 269.593 588.434 275.381C588.434 281.169 569.665 285.861 546.513 285.861Z" fill="#72351C"/>
<path d="M427.638 229.857C433.752 229.857 438.709 220.564 438.709 209.1C438.709 197.636 433.752 188.342 427.638 188.342C421.524 188.342 416.568 197.636 416.568 209.1C416.568 220.564 421.524 229.857 427.638 229.857Z" fill="#FDA57D"/>
<path d="M665.686 229.857C671.8 229.857 676.757 220.564 676.757 209.1C676.757 197.636 671.8 188.342 665.686 188.342C659.572 188.342 654.616 197.636 654.616 209.1C654.616 220.564 659.572 229.857 665.686 229.857Z" fill="#FDA57D"/>
<g opacity="0.7">
<path opacity="0.7" d="M759.594 421.066H331.371C322.444 421.066 315.207 428.303 315.207 437.231V670.107C315.207 679.034 322.444 686.271 331.371 686.271H759.594C768.522 686.271 775.759 679.034 775.759 670.107V437.231C775.759 428.303 768.522 421.066 759.594 421.066Z" fill="url(#paint2_linear)"/>
</g>
<path d="M737.5 425.959H353.466C336.944 425.959 323.55 439.353 323.55 455.875V656.355C323.55 672.877 336.944 686.271 353.466 686.271H737.5C754.022 686.271 767.415 672.877 767.415 656.355V455.875C767.415 439.353 754.022 425.959 737.5 425.959Z" fill="#535461"/>
<path d="M545.483 571.133C553.777 571.133 560.501 564.409 560.501 556.115C560.501 547.821 553.777 541.097 545.483 541.097C537.188 541.097 530.465 547.821 530.465 556.115C530.465 564.409 537.188 571.133 545.483 571.133Z" fill="white"/>
<path d="M1041.08 722.982H49.8883V738H1041.08V722.982Z" fill="#E0E0E0"/>
<path opacity="0.1" d="M1041.08 722.982H49.8883V727.988H1041.08V722.982Z" fill="black"/>
<path opacity="0.1" d="M984.342 592.826V670.002C984.342 674.317 982.628 678.455 979.577 681.506C976.526 684.557 972.388 686.271 968.073 686.271H976.416C980.731 686.271 984.869 684.557 987.92 681.506C990.972 678.455 992.686 674.317 992.686 670.002V592.826H984.342Z" fill="black"/>
<path d="M932.391 530.624C930.984 530.864 929.397 531.244 928.707 532.494C927.612 534.478 929.596 536.715 931.406 538.079C934.749 540.597 938.273 543.071 940.546 546.586C942.819 550.102 943.533 555.008 941.048 558.377C937.804 562.776 930.065 563.722 929.316 569.136C928.835 572.612 931.84 575.578 934.885 577.322C942.4 581.627 952.088 582.776 957.532 589.512C959.784 584.882 964.821 582.205 969.842 581.062C974.862 579.919 980.079 580.004 985.169 579.229C986.812 578.978 988.664 578.476 989.398 576.985C990.821 574.097 986.766 570.634 988.165 567.735C989.231 565.528 992.36 565.699 994.646 564.816C998.367 563.377 999.902 558.588 998.846 554.74C997.789 550.893 994.806 547.886 991.669 545.421C983.214 538.777 973.048 534.87 962.765 532.06C957.983 530.753 952.369 528.703 947.401 528.505C942.606 528.313 937.138 529.812 932.391 530.624Z" fill="#EEEEEE"/>
</g>
</g>
<defs>
<filter id="filter0_d" x="0" y="0" width="1090.97" height="746" filterUnits="userSpaceOnUse" color-interpolation-filters="sRGB">
<feFlood flood-opacity="0" result="BackgroundImageFix"/>
<feColorMatrix in="SourceAlpha" type="matrix" values="0 0 0 0 0 0 0 0 0 0 0 0 0 0 0 0 0 0 127 0"/>
<feOffset dy="4"/>
<feGaussianBlur stdDeviation="2"/>
<feColorMatrix type="matrix" values="0 0 0 0 0 0 0 0 0 0 0 0 0 0 0 0 0 0 0.25 0"/>
<feBlend mode="normal" in2="BackgroundImageFix" result="effect1_dropShadow"/>
<feBlend mode="normal" in="SourceGraphic" in2="effect1_dropShadow" result="shape"/>
</filter>
<linearGradient id="paint0_linear" x1="968.49" y1="690.721" x2="968.49" y2="588.376" gradientUnits="userSpaceOnUse">
<stop stop-color="#808080" stop-opacity="0.25"/>
<stop offset="0.53514" stop-color="#808080" stop-opacity="0.12"/>
<stop offset="1" stop-color="#808080" stop-opacity="0.1"/>
</linearGradient>
<linearGradient id="paint1_linear" x1="236017" y1="384913" x2="236017" y2="70457.3" gradientUnits="userSpaceOnUse">
<stop stop-color="#808080" stop-opacity="0.25"/>
<stop offset="0.53514" stop-color="#808080" stop-opacity="0.12"/>
<stop offset="1" stop-color="#808080" stop-opacity="0.1"/>
</linearGradient>
<linearGradient id="paint2_linear" x1="224015" y1="163681" x2="224015" y2="100590" gradientUnits="userSpaceOnUse">
<stop stop-color="#808080" stop-opacity="0.25"/>
<stop offset="0.53514" stop-color="#808080" stop-opacity="0.12"/>
<stop offset="1" stop-color="#808080" stop-opacity="0.1"/>
</linearGradient>
<clipPath id="clip0">
<rect width="1082.97" height="738" fill="white" transform="translate(4)"/>
</clipPath>
</defs>
</svg>
