<svg width="248" height="125" viewBox="0 0 248 125" fill="none" xmlns="http://www.w3.org/2000/svg">
<path d="M22.2271 119.001L21.8938 118.865C21.8205 118.834 14.53 115.786 11.1148 108.874C7.69943 101.962 9.37177 93.6401 9.38905 93.557L9.46777 93.178L9.80096 93.3144C9.87421 93.3445 17.1646 96.3927 20.58 103.305C23.9953 110.217 22.323 118.539 22.3057 118.622L22.2271 119.001ZM11.6617 108.553C14.5491 114.397 20.3103 117.392 21.77 118.076C22.0476 116.369 22.918 109.465 20.0331 103.626C17.1485 97.7886 11.385 94.7883 9.92472 94.1028C9.64703 95.8111 8.77696 102.715 11.6617 108.553Z" fill="#3F3D56"/>
<path d="M13.7248 106.45C19.8624 110.48 22.2262 118.484 22.2262 118.484C22.2262 118.484 14.639 119.954 8.50137 115.925C2.36378 111.895 0 103.891 0 103.891C0 103.891 7.58722 102.42 13.7248 106.45Z" fill="#D0CDE1"/>
<path d="M210.148 1.53941H141.707V0H110.673V1.53941H41.9501C41.3421 1.53941 40.7401 1.67009 40.1784 1.92398C39.6168 2.17788 39.1064 2.55002 38.6765 3.01916C38.2466 3.48829 37.9056 4.04524 37.673 4.6582C37.4403 5.27115 37.3206 5.92812 37.3206 6.59158V108.864C37.3206 110.204 37.8083 111.489 38.6765 112.437C39.5447 113.384 40.7223 113.916 41.9501 113.916H210.148C210.756 113.916 211.358 113.786 211.92 113.532C212.482 113.278 212.992 112.906 213.422 112.437C213.852 111.967 214.193 111.41 214.425 110.797C214.658 110.185 214.778 109.528 214.778 108.864V6.59158C214.778 5.92812 214.658 5.27115 214.425 4.65819C214.193 4.04523 213.852 3.48829 213.422 3.01915C212.992 2.55001 212.482 2.17787 211.92 1.92398C211.358 1.67009 210.756 1.53941 210.148 1.53941Z" fill="#3F3D56"/>
<path d="M208.571 10.468H43.5273V112.069H208.571V10.468Z" fill="#6C63FF"/>
<path d="M125.908 7.69702C126.843 7.69702 127.601 6.86996 127.601 5.84973C127.601 4.8295 126.843 4.00244 125.908 4.00244C124.973 4.00244 124.215 4.8295 124.215 5.84973C124.215 6.86996 124.973 7.69702 125.908 7.69702Z" fill="#6C63FF"/>
<path d="M199.096 23.3989H191.273V14.8612H199.096V23.3989ZM191.613 23.0277H198.756V15.2324H191.613V23.0277Z" fill="#3F3D56"/>
<path d="M219.412 110.222H203.305V108.955C203.305 108.922 203.299 108.89 203.287 108.859C203.276 108.829 203.259 108.801 203.237 108.778C203.216 108.754 203.191 108.736 203.163 108.723C203.135 108.711 203.105 108.704 203.075 108.704H197.552C197.522 108.704 197.492 108.711 197.464 108.723C197.436 108.736 197.411 108.754 197.39 108.778C197.368 108.801 197.351 108.829 197.34 108.859C197.328 108.89 197.322 108.922 197.322 108.955V110.222H193.871V108.955C193.871 108.922 193.865 108.89 193.853 108.859C193.842 108.829 193.825 108.801 193.803 108.778C193.782 108.754 193.756 108.736 193.729 108.723C193.701 108.711 193.671 108.704 193.64 108.704H188.118C188.088 108.704 188.058 108.711 188.03 108.723C188.002 108.736 187.977 108.754 187.955 108.778C187.934 108.801 187.917 108.829 187.905 108.859C187.894 108.89 187.888 108.922 187.888 108.955V110.222H184.436V108.955C184.436 108.922 184.43 108.89 184.419 108.859C184.407 108.829 184.39 108.801 184.369 108.778C184.348 108.754 184.322 108.736 184.294 108.723C184.266 108.711 184.236 108.704 184.206 108.704H178.684C178.654 108.704 178.624 108.711 178.596 108.723C178.568 108.736 178.542 108.754 178.521 108.778C178.5 108.801 178.483 108.829 178.471 108.859C178.46 108.89 178.454 108.922 178.454 108.955V110.222H175.002V108.955C175.002 108.922 174.996 108.89 174.985 108.859C174.973 108.829 174.956 108.801 174.935 108.778C174.913 108.754 174.888 108.736 174.86 108.723C174.832 108.711 174.802 108.704 174.772 108.704H169.25C169.219 108.704 169.189 108.711 169.162 108.723C169.134 108.736 169.108 108.754 169.087 108.778C169.066 108.801 169.049 108.829 169.037 108.859C169.025 108.89 169.02 108.922 169.02 108.955V110.222H165.568V108.955C165.568 108.922 165.562 108.89 165.55 108.859C165.539 108.829 165.522 108.801 165.501 108.778C165.479 108.754 165.454 108.736 165.426 108.723C165.398 108.711 165.368 108.704 165.338 108.704H159.815C159.785 108.704 159.755 108.711 159.727 108.723C159.699 108.736 159.674 108.754 159.653 108.778C159.631 108.801 159.614 108.829 159.603 108.859C159.591 108.89 159.585 108.922 159.585 108.955V110.222H156.134V108.955C156.134 108.922 156.128 108.89 156.116 108.859C156.105 108.829 156.088 108.801 156.066 108.778C156.045 108.754 156.02 108.736 155.992 108.723C155.964 108.711 155.934 108.704 155.904 108.704H150.381C150.351 108.704 150.321 108.711 150.293 108.723C150.265 108.736 150.24 108.754 150.218 108.778C150.197 108.801 150.18 108.829 150.169 108.859C150.157 108.89 150.151 108.922 150.151 108.955V110.222H146.7V108.955C146.7 108.922 146.694 108.89 146.682 108.859C146.67 108.829 146.654 108.801 146.632 108.778C146.611 108.754 146.585 108.736 146.557 108.723C146.53 108.711 146.5 108.704 146.469 108.704H103.21C103.18 108.704 103.15 108.711 103.122 108.723C103.094 108.736 103.069 108.754 103.047 108.778C103.026 108.801 103.009 108.829 102.998 108.859C102.986 108.89 102.98 108.922 102.98 108.955V110.222H99.5285V108.955C99.5285 108.922 99.5225 108.89 99.511 108.859C99.4994 108.829 99.4825 108.801 99.4611 108.778C99.4397 108.754 99.4144 108.736 99.3864 108.723C99.3585 108.711 99.3286 108.704 99.2984 108.704H93.7759C93.7457 108.704 93.7158 108.711 93.6879 108.723C93.6599 108.736 93.6346 108.754 93.6132 108.778C93.5918 108.801 93.5749 108.829 93.5633 108.859C93.5518 108.89 93.5458 108.922 93.5458 108.955V110.222H90.0943V108.955C90.0943 108.922 90.0883 108.89 90.0768 108.859C90.0652 108.829 90.0482 108.801 90.0269 108.778C90.0055 108.754 89.9801 108.736 89.9522 108.723C89.9243 108.711 89.8944 108.704 89.8642 108.704H84.3417C84.3115 108.704 84.2816 108.711 84.2537 108.723C84.2257 108.736 84.2004 108.754 84.179 108.778C84.1576 108.801 84.1407 108.829 84.1291 108.859C84.1176 108.89 84.1116 108.922 84.1116 108.955V110.222H80.6601V108.955C80.6601 108.922 80.6541 108.89 80.6426 108.859C80.631 108.829 80.614 108.801 80.5927 108.778C80.5713 108.754 80.5459 108.736 80.518 108.723C80.4901 108.711 80.4602 108.704 80.43 108.704H74.9075C74.8773 108.704 74.8474 108.711 74.8194 108.723C74.7915 108.736 74.7662 108.754 74.7448 108.778C74.7234 108.801 74.7065 108.829 74.6949 108.859C74.6833 108.89 74.6774 108.922 74.6774 108.955V110.222H71.2259V108.955C71.2259 108.922 71.2199 108.89 71.2083 108.859C71.1968 108.829 71.1798 108.801 71.1585 108.778C71.1371 108.754 71.1117 108.736 71.0838 108.723C71.0559 108.711 71.026 108.704 70.9958 108.704H65.4733C65.4431 108.704 65.4131 108.711 65.3852 108.723C65.3573 108.736 65.3319 108.754 65.3106 108.778C65.2892 108.801 65.2723 108.829 65.2607 108.859C65.2491 108.89 65.2432 108.922 65.2432 108.955V110.222H61.7916V108.955C61.7916 108.922 61.7857 108.89 61.7741 108.859C61.7626 108.829 61.7456 108.801 61.7243 108.778C61.7029 108.754 61.6775 108.736 61.6496 108.723C61.6217 108.711 61.5918 108.704 61.5615 108.704H56.0391C56.0089 108.704 55.9789 108.711 55.951 108.723C55.9231 108.736 55.8977 108.754 55.8764 108.778C55.855 108.801 55.8381 108.829 55.8265 108.859C55.8149 108.89 55.809 108.922 55.809 108.955V110.222H52.3574V108.955C52.3574 108.922 52.3515 108.89 52.3399 108.859C52.3284 108.829 52.3114 108.801 52.29 108.778C52.2687 108.754 52.2433 108.736 52.2154 108.723C52.1875 108.711 52.1575 108.704 52.1273 108.704H46.6049C46.5747 108.704 46.5447 108.711 46.5168 108.723C46.4889 108.736 46.4635 108.754 46.4422 108.778C46.4208 108.801 46.4038 108.829 46.3923 108.859C46.3807 108.89 46.3748 108.922 46.3748 108.955V110.222H35.79C34.3254 110.222 32.9207 110.857 31.8851 111.987C30.8494 113.117 30.2676 114.65 30.2676 116.248V118.973C30.2676 120.572 30.8494 122.105 31.8851 123.235C32.9207 124.365 34.3254 125 35.79 125H219.412C220.877 125 222.281 124.365 223.317 123.235C224.353 122.105 224.934 120.572 224.934 118.973V116.248C224.934 114.65 224.353 113.117 223.317 111.987C222.281 110.857 220.877 110.222 219.412 110.222Z" fill="#3F3D56"/>
<path d="M247.649 118.817H7.55298V119.617H247.649V118.817Z" fill="#3F3D56"/>
<path d="M198.369 67.082H145.23V34.0679H198.369V67.082ZM145.756 66.5078H197.842V34.642H145.756V66.5078Z" fill="#3F3D56"/>
<path d="M101.035 73.6848H53.6838V41.532H101.035V73.6848ZM54.21 73.1107H100.509V42.1061H54.21V73.1107Z" fill="#3F3D56"/>
<path d="M75.806 61.3404L75.7606 60.6984C75.625 59.3653 76.0322 57.9086 77.1633 56.4275C78.1814 55.1188 78.7469 54.1561 78.7469 53.0451C78.7469 51.786 78.023 50.9467 76.5977 50.922C75.7826 50.9184 74.9857 51.1853 74.3127 51.6874L73.7698 50.132C74.5164 49.5393 75.8059 49.1443 77.0049 49.1443C79.6066 49.1443 80.783 50.8973 80.783 52.7734C80.783 54.4524 79.9233 55.6622 78.8373 57.0692C77.842 58.353 77.48 59.4393 77.5478 60.6984L77.5705 61.3404L75.806 61.3404ZM75.3082 64.7968C75.296 64.5954 75.3223 64.3934 75.3853 64.2036C75.4483 64.0139 75.5467 63.8404 75.6742 63.6942C75.8018 63.548 75.9558 63.4323 76.1264 63.3544C76.297 63.2765 76.4806 63.238 76.6655 63.2414C77.4574 63.2414 78.0004 63.8832 78.0004 64.7968C78.0079 64.9948 77.9786 65.1924 77.9143 65.3778C77.85 65.5631 77.7521 65.7324 77.6264 65.8753C77.5006 66.0183 77.3497 66.1321 77.1826 66.2098C77.0156 66.2875 76.8359 66.3276 76.6543 66.3276C76.4727 66.3276 76.293 66.2875 76.1259 66.2098C75.9589 66.1321 75.808 66.0183 75.6823 65.8753C75.5565 65.7324 75.4586 65.5631 75.3943 65.3778C75.33 65.1924 75.3007 64.9948 75.3082 64.7968Z" fill="#D0CDE1"/>
<path d="M170.246 54.1634L170.2 53.5214C170.065 52.1883 170.472 50.7316 171.603 49.2505C172.621 47.9418 173.187 46.9791 173.187 45.8681C173.187 44.609 172.463 43.7697 171.037 43.745C170.222 43.7414 169.425 44.0083 168.752 44.5104L168.209 42.955C168.956 42.3623 170.246 41.9673 171.445 41.9673C174.046 41.9673 175.223 43.7203 175.223 45.5964C175.223 47.2754 174.363 48.4852 173.277 49.8922C172.282 51.176 171.92 52.2623 171.988 53.5214L172.01 54.1634L170.246 54.1634ZM169.748 57.6198C169.736 57.4184 169.762 57.2164 169.825 57.0266C169.888 56.8368 169.986 56.6634 170.114 56.5172C170.241 56.371 170.395 56.2553 170.566 56.1774C170.737 56.0995 170.92 56.061 171.105 56.0644C171.897 56.0644 172.44 56.7061 172.44 57.6198C172.448 57.8178 172.418 58.0154 172.354 58.2008C172.29 58.3861 172.192 58.5554 172.066 58.6983C171.94 58.8413 171.789 58.9551 171.622 59.0328C171.455 59.1105 171.276 59.1506 171.094 59.1506C170.912 59.1506 170.733 59.1105 170.566 59.0328C170.399 58.9551 170.248 58.8413 170.122 58.6983C169.996 58.5554 169.898 58.3861 169.834 58.2008C169.77 58.0154 169.74 57.8178 169.748 57.6198Z" fill="#D0CDE1"/>
<path d="M126.979 99.6568C139.516 99.6568 149.679 88.5657 149.679 74.8841C149.679 61.2026 139.516 50.1115 126.979 50.1115C114.442 50.1115 104.279 61.2026 104.279 74.8841C104.279 88.5657 114.442 99.6568 126.979 99.6568Z" fill="#2F2E41"/>
<path d="M118.212 108.808L111.425 107.467L113.626 92.0043L120.412 93.3449L118.212 108.808Z" fill="#2F2E41"/>
<path d="M133.984 96.026L127.198 94.6854L124.997 107.954L131.784 109.294L133.984 96.026Z" fill="#2F2E41"/>
<path d="M136.319 110.017C136.555 108.744 134.223 107.156 131.112 106.471C128.001 105.785 125.288 106.262 125.052 107.535C124.817 108.808 127.148 110.396 130.259 111.081C133.37 111.767 136.083 111.29 136.319 110.017Z" fill="#2F2E41"/>
<path d="M122.185 109.617C122.341 108.33 119.917 106.917 116.771 106.462C113.625 106.007 110.947 106.682 110.791 107.97C110.635 109.258 113.059 110.67 116.205 111.125C119.351 111.58 122.029 110.905 122.185 109.617Z" fill="#2F2E41"/>
<path d="M128.568 77.2913C132.853 77.2913 136.326 73.5006 136.326 68.8246C136.326 64.1487 132.853 60.358 128.568 60.358C124.283 60.358 120.81 64.1487 120.81 68.8246C120.81 73.5006 124.283 77.2913 128.568 77.2913Z" fill="white"/>
<path d="M131.757 68.6121C133.185 68.6121 134.343 67.3485 134.343 65.7899C134.343 64.2312 133.185 62.9677 131.757 62.9677C130.328 62.9677 129.171 64.2312 129.171 65.7899C129.171 67.3485 130.328 68.6121 131.757 68.6121Z" fill="#3F3D56"/>
<path d="M109.071 47.9341C108.73 38.7629 115.973 30.9948 125.249 30.5836C134.525 30.1724 142.322 37.2738 142.663 46.4451C143.005 55.6163 136.556 57.7001 127.28 58.1113C118.004 58.5225 109.413 57.1054 109.071 47.9341Z" fill="white"/>
<path d="M148.736 74.1612C154.846 72.6328 159.442 69.6969 159.003 67.6037C158.563 65.5104 153.253 65.0525 147.143 66.5809C141.033 68.1093 136.436 71.0452 136.876 73.1384C137.316 75.2317 142.625 75.6896 148.736 74.1612Z" fill="#2F2E41"/>
<path d="M104.176 82.2479C110.286 80.7195 114.883 77.7836 114.443 75.6903C114.003 73.5971 108.694 73.1392 102.584 74.6676C96.4734 76.1959 91.8767 79.1318 92.3164 81.2251C92.756 83.3183 98.0656 83.7763 104.176 82.2479Z" fill="#2F2E41"/>
<path d="M120.744 84.6467C120.623 85.3761 120.635 86.1244 120.779 86.8488C120.923 87.5731 121.196 88.2595 121.584 88.8686C121.971 89.4777 122.464 89.9977 123.035 90.3988C123.606 90.7999 124.244 91.0743 124.913 91.2063C125.581 91.3384 126.267 91.3255 126.93 91.1683C127.594 91.0112 128.223 90.7129 128.781 90.2905C129.339 89.8681 129.816 89.3299 130.183 88.7066C130.551 88.0833 130.802 87.387 130.923 86.6577C131.432 83.5902 129.259 82.5047 126.448 81.9494C123.637 81.3941 121.253 81.5793 120.744 84.6467Z" fill="white"/>
<path d="M77.9778 3.76721H40.6526V42.5135H77.9778V3.76721Z" fill="#D0CDE1"/>
<path d="M73.7363 8.39587H44.894V32.4652H73.7363V8.39587Z" fill="white"/>
<path d="M60.5537 35.3048H44.8655V36.2059H60.5537V35.3048Z" fill="#F2F2F2"/>
<path d="M60.5537 38.0081H44.8655V38.9091H60.5537V38.0081Z" fill="#F2F2F2"/>
<path d="M50.0259 24.0414C51.85 24.0414 53.3287 22.4277 53.3287 20.4371C53.3287 18.4465 51.85 16.8328 50.0259 16.8328C48.2019 16.8328 46.7231 18.4465 46.7231 20.4371C46.7231 22.4277 48.2019 24.0414 50.0259 24.0414Z" fill="#3F3D56"/>
<path d="M59.315 24.0414C61.1391 24.0414 62.6178 22.4277 62.6178 20.4371C62.6178 18.4465 61.1391 16.8328 59.315 16.8328C57.4909 16.8328 56.0122 18.4465 56.0122 20.4371C56.0122 22.4277 57.4909 24.0414 59.315 24.0414Z" fill="#6C63FF"/>
<path d="M68.6043 24.0414C70.4284 24.0414 71.9071 22.4277 71.9071 20.4371C71.9071 18.4465 70.4284 16.8328 68.6043 16.8328C66.7802 16.8328 65.3015 18.4465 65.3015 20.4371C65.3015 22.4277 66.7802 24.0414 68.6043 24.0414Z" fill="#E6E6E6"/>
<path d="M59.315 7.82196C60.227 7.82196 60.9664 7.01511 60.9664 6.0198C60.9664 5.0245 60.227 4.21765 59.315 4.21765C58.4029 4.21765 57.6636 5.0245 57.6636 6.0198C57.6636 7.01511 58.4029 7.82196 59.315 7.82196Z" fill="#3F3D56"/>
<path d="M95.731 78.7914H58.4058V117.538H95.731V78.7914Z" fill="#D0CDE1"/>
<path d="M91.4897 83.4202H62.6475V107.49H91.4897V83.4202Z" fill="white"/>
<path d="M79.1055 87.3756H68.9941V98.4101H79.1055V87.3756Z" fill="#6C63FF"/>
<path d="M72.8647 90.1349V103.534H85.1429V90.1349H72.8647ZM84.6103 102.953H73.3973V90.7161H84.6103V102.953Z" fill="#3F3D56"/>
<path d="M78.3071 109.879H62.6189V110.78H78.3071V109.879Z" fill="#F2F2F2"/>
<path d="M77.0686 82.8463C77.9807 82.8463 78.72 82.0394 78.72 81.0441C78.72 80.0488 77.9807 79.2419 77.0686 79.2419C76.1566 79.2419 75.4172 80.0488 75.4172 81.0441C75.4172 82.0394 76.1566 82.8463 77.0686 82.8463Z" fill="#3F3D56"/>
<path d="M192.91 67.1917H155.585V105.938H192.91V67.1917Z" fill="#D0CDE1"/>
<path d="M188.669 71.8204H159.827V95.8898H188.669V71.8204Z" fill="white"/>
<path d="M177.35 90.6631H171.146V92.6697H177.35V90.6631Z" fill="#3F3D56"/>
<path d="M184.851 75.0403H163.644V75.9002H184.851V75.0403Z" fill="#3F3D56"/>
<path d="M184.851 77.7635H163.644V78.6235H184.851V77.7635Z" fill="#3F3D56"/>
<path d="M184.851 80.4868H163.644V81.3468H184.851V80.4868Z" fill="#3F3D56"/>
<path d="M184.851 83.2101H163.644V84.07H184.851V83.2101Z" fill="#3F3D56"/>
<path d="M184.851 85.9333H163.644V86.7933H184.851V85.9333Z" fill="#3F3D56"/>
<path d="M175.486 98.2788H159.798V99.1799H175.486V98.2788Z" fill="#F2F2F2"/>
<path d="M181.679 100.531H159.798V101.432H181.679V100.531Z" fill="#F2F2F2"/>
<path d="M174.248 71.2465C175.16 71.2465 175.899 70.4397 175.899 69.4444C175.899 68.4491 175.16 67.6422 174.248 67.6422C173.336 67.6422 172.596 68.4491 172.596 69.4444C172.596 70.4397 173.336 71.2465 174.248 71.2465Z" fill="#3F3D56"/>
</svg>
