<svg width="309" height="346" viewBox="0 0 309 346" fill="none" xmlns="http://www.w3.org/2000/svg">
<path d="M289.947 55.949C318.858 100.333 309.626 166.866 289.347 221.165C269.152 275.391 237.997 317.345 197.176 335.364C156.444 353.38 106.13 347.432 67.6421 325.626C29.0655 303.813 2.31093 266.164 0.155169 230.299C-2.08913 194.546 20.35 160.661 45.5493 117.137C70.7486 73.6143 98.8813 20.4377 146.435 4.92532C194.07 -10.5871 261.037 11.6608 289.947 55.949Z" fill="#F2F2F2"/>
<path d="M213.515 282.229L186.074 236.055" stroke="#ED7562" stroke-width="1.4054" stroke-linecap="round" stroke-linejoin="round"/>
<path d="M225.415 282.229L197.974 236.055" stroke="#ED7562" stroke-width="1.4054" stroke-linecap="round" stroke-linejoin="round"/>
<path d="M137.818 282.229L165.255 236.055" stroke="#ED7562" stroke-width="1.4054" stroke-linecap="round" stroke-linejoin="round"/>
<path d="M200.901 138.758H241.471L214.224 237.504H145.103V233.986H196.366L200.901 138.758Z" fill="#ED7562"/>
<path d="M140.592 278.665L132.902 279.861L133.971 286.734L141.661 285.538L140.592 278.665Z" fill="#DE8E68"/>
<path d="M95.3129 274.317L88.7856 270.079L84.9976 275.912L91.5249 280.151L95.3129 274.317Z" fill="#DE8E68"/>
<path d="M120.91 203.564C115.23 203.564 86.8809 269.565 86.8809 271.976C86.8809 274.387 93.0337 277.124 93.9416 277.124C95.3563 275.81 122.493 236.583 125.318 233.847C128.143 231.11 120.91 203.564 120.91 203.564Z" fill="#56CAD8"/>
<path d="M166.019 155.097C164.153 155.684 155.04 163.492 153.448 172.871C151.826 172.677 142.096 172.272 138.042 172.107C136.716 170.042 133.925 168.61 130.686 168.61C126.172 168.61 122.51 171.385 122.51 174.805C122.51 174.882 122.51 174.953 122.51 175.029H138.832C138.832 174.953 138.832 174.882 138.832 174.805C138.827 173.941 138.594 173.093 138.156 172.348L152.337 174.607L169.182 176.36L170.918 161.647L166.019 155.097Z" fill="#D37C59"/>
<path d="M180.006 144.645C180.006 143.458 177.05 142.111 174.879 142.111C169.085 142.111 159.284 152.669 159.284 153.995C159.284 155.321 166.34 161.224 171.763 161.579C177.185 161.934 180.006 144.645 180.006 144.645Z" fill="#FCC486"/>
<path d="M194.398 136.182C227.147 136.182 219.664 210.164 215.512 213.289C211.361 216.414 174.972 216.701 172.603 213.576C170.234 210.451 155.534 136.182 194.398 136.182Z" fill="#FED385"/>
<path d="M200.153 122.031H187.062V139.569C187.062 142.352 200.153 142.373 200.153 139.569V122.031Z" fill="#D37C59"/>
<path d="M203.88 115.388C205.553 104.897 201.189 95.4799 194.132 94.3546C187.075 93.2293 179.998 100.822 178.325 111.313C176.652 121.804 181.017 131.221 188.074 132.346C195.131 133.471 202.208 125.879 203.88 115.388Z" fill="#DE8E68"/>
<path d="M221.804 85C228.139 85 234.473 88.3784 242.497 88.3784C248.831 88.3784 254.744 85.8446 262.345 85.8446C275.858 85.8446 280.081 94.7128 280.081 100.203C280.081 114.138 268.679 119.628 260.233 119.628C246.72 119.628 245.031 110.338 228.983 110.338C213.359 110.338 215.47 97.6689 212.092 97.6689C210.402 97.6689 209.347 97.88 208.713 98.5135C208.08 99.1469 204.913 96.8243 204.913 95.9797C204.913 95.1351 209.136 85 221.804 85Z" fill="black"/>
<path d="M193.511 89.6453C178.574 89.6453 175.449 101.009 175.449 104.29C175.449 107.572 177.523 110.004 178.583 110.084C179.241 106.161 182.383 100.747 182.531 100.625C183.376 101.47 186.505 104.181 189.71 104.426C192.38 104.563 194.973 105.37 197.248 106.774C197.436 107.865 197.848 108.906 198.456 109.831C199.32 111.223 200.625 112.286 202.164 112.85C202.539 113.794 202.754 114.793 202.801 115.807C202.801 120.317 202.379 122.141 201.957 123.408C208.84 123.408 212.092 116.318 212.092 107.361C212.092 92.614 199.043 89.6453 193.511 89.6453Z" fill="black"/>
<path d="M202.78 119.544C204.795 119.544 206.429 117.91 206.429 115.895C206.429 113.88 204.795 112.247 202.78 112.247C200.765 112.247 199.131 113.88 199.131 115.895C199.131 117.91 200.765 119.544 202.78 119.544Z" fill="#DE8E68"/>
<path d="M190.554 163.492C189.081 163.847 183.173 167.508 179.63 173.826C176.146 173.176 161.973 169.632 149.393 169.632C148.211 169.632 145.141 168.661 143.903 168.661C136.526 168.661 134.984 172.648 134.984 173.826C134.984 175.004 135.238 175.038 135.466 175.038C160.804 175.038 167.176 185.726 181.429 185.726C186.04 185.726 195.546 182.386 201.276 173.83C199.266 167.014 190.554 163.492 190.554 163.492Z" fill="#DE8E68"/>
<path d="M215.462 149.092C223.375 156.774 203.363 178.036 200.153 177.724C196.944 177.411 185.373 165.228 185.263 161.524C185.153 157.821 207.814 141.664 215.462 149.092Z" fill="#FED892"/>
<path d="M231.728 175.984H53V181.752H231.728V175.984Z" fill="#FD8369"/>
<path d="M215.441 216.968C215.441 215.152 215.758 213.049 214.626 212.58C187.759 201.503 148.427 200.067 142.367 200.067C136.307 200.067 118.587 200.684 118.587 205.756C118.587 224.075 128.794 280.472 130.868 282.58C131.851 283.572 140.433 282.909 141.501 281.836C141.429 277.191 144.128 230.532 141.666 224.881C164.246 233.158 189.888 237.077 196.644 237.077C216.226 237.056 215.441 219.121 215.441 216.968Z" fill="#74D5DE"/>
<path d="M92.1679 279.282L85.3521 274.738L67.0075 270.895L65.2634 273.775L86.8808 287.141L92.1679 279.282Z" fill="black"/>
<path d="M142.299 283.724L134.212 284.995L118.11 294.59L118.777 297.896L143.735 293.091L142.299 283.724Z" fill="black"/>
<path d="M222.125 267.783V180.139" stroke="#FD8369" stroke-width="1.4054" stroke-linecap="round" stroke-linejoin="round"/>
<path d="M73.625 267.783V180.139" stroke="#FD8369" stroke-width="1.4054" stroke-linecap="round" stroke-linejoin="round"/>
<path d="M209.575 285.346V180.139" stroke="#FD8369" stroke-width="1.4054" stroke-linecap="round" stroke-linejoin="round"/>
<path d="M60.365 285.346V180.139" stroke="#FD8369" stroke-width="1.4054" stroke-linecap="round" stroke-linejoin="round"/>
<path d="M150.027 282.229L177.463 236.055" stroke="#ED7562" stroke-width="1.4054" stroke-linecap="round" stroke-linejoin="round"/>
<path d="M148.262 174.924H118.587V175.984H148.262V174.924Z" fill="#74D5DE"/>
<path d="M150.458 105.84H85.6689V152.888H150.458V105.84Z" fill="#74D5DE"/>
<path d="M108.963 144.041L100.027 175.984H115.69L124.364 144.041H108.963Z" fill="#56CAD8"/>
</svg>
