<svg width="228" height="213" viewBox="0 0 228 213" fill="none" xmlns="http://www.w3.org/2000/svg">
<path d="M160.515 197.229L133.074 151.055" stroke="#ED7562" stroke-width="1.4054" stroke-linecap="round" stroke-linejoin="round"/>
<path d="M172.415 197.229L144.974 151.055" stroke="#ED7562" stroke-width="1.4054" stroke-linecap="round" stroke-linejoin="round"/>
<path d="M84.8181 197.229L112.255 151.055" stroke="#ED7562" stroke-width="1.4054" stroke-linecap="round" stroke-linejoin="round"/>
<path d="M147.901 53.7583H188.471L161.224 152.504H92.103V148.986H143.366L147.901 53.7583Z" fill="#ED7562"/>
<path d="M87.5923 193.665L79.9019 194.861L80.9707 201.734L88.6612 200.538L87.5923 193.665Z" fill="#DE8E68"/>
<path d="M42.3129 189.317L35.7856 185.079L31.9976 190.912L38.5249 195.151L42.3129 189.317Z" fill="#DE8E68"/>
<path d="M67.9095 118.564C62.2296 118.564 33.8809 184.565 33.8809 186.976C33.8809 189.387 40.0337 192.124 40.9416 192.124C42.3563 190.81 69.4931 151.583 72.3183 148.847C75.1434 146.11 67.9095 118.564 67.9095 118.564Z" fill="#56CAD8"/>
<path d="M113.019 70.0969C111.153 70.6839 102.04 78.4922 100.448 87.8714C98.8261 87.6771 89.0964 87.2717 85.0423 87.107C83.7163 85.042 80.9249 83.6104 77.6859 83.6104C73.1716 83.6104 69.5103 86.3849 69.5103 89.8055C69.5103 89.8815 69.5103 89.9533 69.5103 90.0293H85.832C85.832 89.9533 85.832 89.8815 85.832 89.8055C85.8266 88.9411 85.5936 88.0934 85.1563 87.3477L99.337 89.607L116.182 91.3596L117.918 76.6467L113.019 70.0969Z" fill="#D37C59"/>
<path d="M127.006 59.6451C127.006 58.4585 124.05 57.1113 121.879 57.1113C116.085 57.1113 106.284 67.6687 106.284 68.9948C106.284 70.3208 113.34 76.2245 118.763 76.5792C124.185 76.9339 127.006 59.6451 127.006 59.6451Z" fill="#FCC486"/>
<path d="M141.398 51.1823C174.147 51.1823 166.664 125.164 162.512 128.289C158.361 131.414 121.972 131.701 119.603 128.576C117.234 125.451 102.534 51.1823 141.398 51.1823Z" fill="#FED385"/>
<path d="M147.153 37.0311H134.062V54.5691C134.062 57.352 147.153 57.3731 147.153 54.5691V37.0311Z" fill="#D37C59"/>
<path d="M150.88 30.3877C152.553 19.8967 148.189 10.4799 141.132 9.35459C134.075 8.2293 126.998 15.8217 125.325 26.3127C123.652 36.8037 128.017 46.2205 135.074 47.3458C142.131 48.4711 149.208 40.8787 150.88 30.3877Z" fill="#DE8E68"/>
<path d="M168.804 0C175.139 0 181.473 3.37837 189.497 3.37837C195.831 3.37837 201.744 0.844593 209.345 0.844593C222.858 0.844593 227.081 9.71282 227.081 15.2027C227.081 29.1384 215.679 34.6283 207.233 34.6283C193.72 34.6283 192.031 25.3378 175.983 25.3378C160.359 25.3378 162.47 12.6689 159.092 12.6689C157.402 12.6689 156.347 12.88 155.713 13.5135C155.08 14.1469 151.913 11.8243 151.913 10.9797C151.913 10.1351 156.136 0 168.804 0Z" fill="black"/>
<path d="M140.511 4.64525C125.574 4.64525 122.449 16.0092 122.449 19.2905C122.449 22.5717 124.523 25.0042 125.583 25.0844C126.241 21.1613 129.383 15.7474 129.531 15.625C130.376 16.4695 133.505 19.1807 136.71 19.4256C139.38 19.5628 141.973 20.3703 144.248 21.7736C144.436 22.8649 144.848 23.9056 145.456 24.831C146.32 26.2231 147.625 27.2861 149.164 27.8504C149.539 28.7935 149.754 29.7926 149.801 30.8065C149.801 35.3166 149.379 37.141 148.957 38.4078C155.84 38.4078 159.092 31.3175 159.092 22.3606C159.092 7.614 146.043 4.64525 140.511 4.64525Z" fill="black"/>
<path d="M149.78 34.5438C151.795 34.5438 153.429 32.9103 153.429 30.8952C153.429 28.8801 151.795 27.2466 149.78 27.2466C147.765 27.2466 146.131 28.8801 146.131 30.8952C146.131 32.9103 147.765 34.5438 149.78 34.5438Z" fill="#DE8E68"/>
<path d="M137.554 78.4922C136.081 78.847 130.173 82.5083 126.63 88.8259C123.146 88.1755 108.973 84.6324 96.3931 84.6324C95.2107 84.6324 92.1406 83.6612 90.9033 83.6612C83.5258 83.6612 81.9844 87.6476 81.9844 88.8259C81.9844 90.0041 82.2378 90.0378 82.4658 90.0378C107.804 90.0378 114.176 100.726 128.429 100.726C133.04 100.726 142.546 97.3858 148.276 88.8301C146.266 82.0142 137.554 78.4922 137.554 78.4922Z" fill="#DE8E68"/>
<path d="M162.462 64.0919C170.375 71.7735 150.363 93.0361 147.153 92.7236C143.944 92.4111 132.373 80.2279 132.263 76.5243C132.153 72.8208 154.814 56.6637 162.462 64.0919Z" fill="#FED892"/>
<path d="M178.728 90.9837H0V96.7523H178.728V90.9837Z" fill="#FD8369"/>
<path d="M162.441 131.968C162.441 130.152 162.758 128.049 161.626 127.58C134.759 116.503 95.4266 115.067 89.3667 115.067C83.3067 115.067 65.5872 115.684 65.5872 120.756C65.5872 139.075 75.794 195.472 77.8675 197.58C78.8515 198.572 87.4326 197.909 88.501 196.836C88.4292 192.191 91.1276 145.532 88.6656 139.881C111.246 148.158 136.888 152.077 143.644 152.077C163.226 152.056 162.441 134.121 162.441 131.968Z" fill="#74D5DE"/>
<path d="M39.1679 194.282L32.3521 189.738L14.0075 185.895L12.2634 188.775L33.8808 202.141L39.1679 194.282Z" fill="black"/>
<path d="M89.2987 198.724L81.2118 199.995L65.1096 209.59L65.7769 212.897L90.7346 208.091L89.2987 198.724Z" fill="black"/>
<path d="M169.125 182.783V95.1391" stroke="#FD8369" stroke-width="1.4054" stroke-linecap="round" stroke-linejoin="round"/>
<path d="M20.625 182.783V95.1391" stroke="#FD8369" stroke-width="1.4054" stroke-linecap="round" stroke-linejoin="round"/>
<path d="M156.575 200.346V95.1391" stroke="#FD8369" stroke-width="1.4054" stroke-linecap="round" stroke-linejoin="round"/>
<path d="M7.36499 200.346V95.1391" stroke="#FD8369" stroke-width="1.4054" stroke-linecap="round" stroke-linejoin="round"/>
<path d="M97.0269 197.229L124.463 151.055" stroke="#ED7562" stroke-width="1.4054" stroke-linecap="round" stroke-linejoin="round"/>
<path d="M95.2619 89.9238H65.5872V90.9837H95.2619V89.9238Z" fill="#74D5DE"/>
<path d="M97.4576 20.8403H32.6689V67.8884H97.4576V20.8403Z" fill="#74D5DE"/>
<path d="M55.9629 59.0413L47.0271 90.9838H62.6901L71.364 59.0413H55.9629Z" fill="#56CAD8"/>
</svg>
